<?xml version="1.0" encoding="UTF-8"?>
<svg id="Layer_1" data-name="Layer 1" xmlns="http://www.w3.org/2000/svg" viewBox="0 0 288 288">
  <defs>
    <style>
      .cls-1 {
        fill: #000c09;
        stroke-width: 0px;
      }
    </style>
  </defs>
  <path class="cls-1" d="m144,155.04c-45.72,0-82.91,37.19-82.91,82.91h30.25c0-29.04,23.62-52.66,52.66-52.66s52.66,23.62,52.66,52.66h30.25c0-45.72-37.2-82.91-82.91-82.91Z"/>
  <path class="cls-1" d="m144,102.24c17.37,27.47,48,45.76,82.83,45.76v-30.25c-37.33,0-67.7-30.37-67.7-67.7h-30.25c0,37.33-30.37,67.7-67.7,67.7v30.25c34.83,0,65.46-18.29,82.83-45.76Z"/>
  <path class="cls-1" d="m253.39,279.16H34.61c-14.21,0-25.77-11.56-25.77-25.77V34.61c0-14.21,11.56-25.77,25.77-25.77h218.78c14.21,0,25.77,11.56,25.77,25.77v218.78c0,14.21-11.56,25.77-25.77,25.77ZM34.61,18.79c-8.72,0-15.82,7.1-15.82,15.82v218.78c0,8.72,7.1,15.82,15.82,15.82h218.78c8.72,0,15.82-7.1,15.82-15.82V34.61c0-8.72-7.1-15.82-15.82-15.82H34.61Z"/>
</svg>